<svg width="211" height="135" viewBox="0 0 211 135" fill="none" xmlns="http://www.w3.org/2000/svg">
<rect x="104" y="11" width="45" height="124" rx="4" fill="#D9D9D9"/>
<rect x="8" y="11" width="45" height="124" rx="4" fill="#D9D9D9"/>
<rect x="152" y="11" width="45" height="124" rx="4" fill="#9F9D9D"/>
<rect x="56" y="11" width="45" height="124" rx="4" fill="#9F9D9D"/>
<rect y="91" width="211" height="35" rx="4" fill="white"/>
<path d="M65.5966 113V106.455H67.8295V107.699H67.8977C68.0341 107.29 68.267 106.966 68.5966 106.727C68.9261 106.489 69.3182 106.369 69.7727 106.369C70.233 106.369 70.6293 106.491 70.9616 106.736C71.294 106.977 71.4943 107.298 71.5625 107.699H71.6307C71.7415 107.298 71.9773 106.977 72.3381 106.736C72.6989 106.491 73.1222 106.369 73.608 106.369C74.2358 106.369 74.7443 106.571 75.1335 106.974C75.5256 107.378 75.7216 107.915 75.7216 108.585V113H73.3693V109.182C73.3693 108.895 73.2969 108.67 73.152 108.509C73.0071 108.344 72.8125 108.261 72.5682 108.261C72.3267 108.261 72.1349 108.344 71.9929 108.509C71.8537 108.67 71.7841 108.895 71.7841 109.182V113H69.5341V109.182C69.5341 108.895 69.4616 108.67 69.3168 108.509C69.1719 108.344 68.9773 108.261 68.733 108.261C68.571 108.261 68.4318 108.298 68.3153 108.372C68.1989 108.446 68.108 108.553 68.0426 108.692C67.9801 108.828 67.9489 108.991 67.9489 109.182V113H65.5966ZM78.7056 113.102C78.288 113.102 77.9187 113.034 77.5977 112.898C77.2795 112.759 77.0295 112.548 76.8477 112.267C76.6658 111.986 76.5749 111.628 76.5749 111.193C76.5749 110.835 76.636 110.53 76.7582 110.277C76.8803 110.021 77.0508 109.812 77.2695 109.651C77.4883 109.489 77.7425 109.365 78.0323 109.28C78.3249 109.195 78.6403 109.139 78.9783 109.114C79.3448 109.085 79.6388 109.051 79.8604 109.011C80.0849 108.969 80.2468 108.911 80.3462 108.837C80.4457 108.76 80.4954 108.659 80.4954 108.534V108.517C80.4954 108.347 80.43 108.216 80.2994 108.125C80.1687 108.034 80.0011 107.989 79.7965 107.989C79.5721 107.989 79.3888 108.038 79.2468 108.138C79.1076 108.234 79.0238 108.384 78.9954 108.585H76.8306C76.859 108.187 76.9854 107.821 77.2099 107.486C77.4371 107.148 77.7681 106.878 78.2028 106.676C78.6374 106.472 79.18 106.369 79.8306 106.369C80.2994 106.369 80.7198 106.425 81.092 106.536C81.4641 106.643 81.7809 106.795 82.0423 106.991C82.3036 107.185 82.5025 107.412 82.6388 107.673C82.7781 107.932 82.8477 108.213 82.8477 108.517V113H80.6488V112.08H80.5977C80.467 112.324 80.3079 112.521 80.1204 112.672C79.9357 112.822 79.7241 112.932 79.4854 113C79.2496 113.068 78.9897 113.102 78.7056 113.102ZM79.4727 111.619C79.6516 111.619 79.8192 111.582 79.9755 111.509C80.1346 111.435 80.2638 111.328 80.3633 111.189C80.4627 111.05 80.5124 110.881 80.5124 110.682V110.136C80.4499 110.162 80.3832 110.186 80.3121 110.209C80.244 110.232 80.1701 110.253 80.0906 110.273C80.0138 110.293 79.9315 110.311 79.8434 110.328C79.7582 110.345 79.6687 110.361 79.5749 110.375C79.3931 110.403 79.244 110.45 79.1275 110.516C79.0138 110.578 78.9286 110.656 78.8718 110.75C78.8178 110.841 78.7908 110.943 78.7908 111.057C78.7908 111.239 78.8548 111.378 78.9826 111.474C79.1104 111.571 79.2738 111.619 79.4727 111.619ZM83.9716 113V106.455H86.2557V107.699H86.3239C86.4432 107.239 86.6321 106.902 86.8906 106.689C87.152 106.476 87.4574 106.369 87.8068 106.369C87.9091 106.369 88.0099 106.378 88.1094 106.395C88.2116 106.409 88.3097 106.43 88.4034 106.459V108.466C88.2869 108.426 88.1435 108.396 87.973 108.376C87.8026 108.357 87.6563 108.347 87.5341 108.347C87.304 108.347 87.0966 108.399 86.9119 108.504C86.7301 108.607 86.5866 108.751 86.4815 108.939C86.3764 109.124 86.3239 109.341 86.3239 109.591V113H83.9716ZM91.2884 111.449L91.3054 108.653H91.6122L93.1974 106.455H95.8395L93.1804 109.881H92.5156L91.2884 111.449ZM89.1747 113V104.273H91.527V113H89.1747ZM93.2145 113L91.7145 110.409L93.2486 108.739L95.9077 113H93.2145ZM99.3189 113.119C98.62 113.119 98.0178 112.986 97.5121 112.719C97.0092 112.449 96.6214 112.062 96.3487 111.56C96.0788 111.054 95.9439 110.449 95.9439 109.744C95.9439 109.068 96.0803 108.477 96.353 107.972C96.6257 107.466 97.0107 107.072 97.5078 106.791C98.005 106.51 98.5916 106.369 99.2678 106.369C99.7621 106.369 100.21 106.446 100.61 106.599C101.011 106.753 101.353 106.976 101.637 107.268C101.921 107.558 102.14 107.911 102.293 108.325C102.447 108.74 102.523 109.207 102.523 109.727V110.273H96.6768V108.977H100.359C100.356 108.79 100.308 108.625 100.214 108.483C100.123 108.338 99.9993 108.226 99.843 108.146C99.6896 108.064 99.5149 108.023 99.3189 108.023C99.1286 108.023 98.9538 108.064 98.7947 108.146C98.6357 108.226 98.5078 108.337 98.4112 108.479C98.3175 108.621 98.2678 108.787 98.2621 108.977V110.375C98.2621 110.585 98.3061 110.773 98.3942 110.938C98.4822 111.102 98.6087 111.232 98.7734 111.325C98.9382 111.419 99.1371 111.466 99.37 111.466C99.532 111.466 99.6797 111.443 99.8132 111.398C99.9496 111.352 100.066 111.287 100.163 111.202C100.259 111.114 100.33 111.009 100.376 110.886H102.523C102.45 111.341 102.275 111.736 101.999 112.071C101.724 112.403 101.359 112.662 100.904 112.847C100.452 113.028 99.924 113.119 99.3189 113.119ZM107.387 106.455V108.159H103.074V106.455H107.387ZM103.909 104.886H106.262V110.895C106.262 110.986 106.277 111.062 106.309 111.125C106.34 111.185 106.388 111.23 106.453 111.261C106.519 111.29 106.603 111.304 106.705 111.304C106.776 111.304 106.858 111.295 106.952 111.278C107.049 111.261 107.12 111.247 107.165 111.236L107.506 112.889C107.401 112.92 107.25 112.959 107.054 113.004C106.861 113.05 106.631 113.08 106.364 113.094C105.824 113.122 105.371 113.067 105.005 112.928C104.638 112.786 104.363 112.562 104.178 112.259C103.993 111.955 103.904 111.574 103.909 111.116V104.886ZM108.347 115.455V106.455H110.682V107.597H110.733C110.818 107.375 110.943 107.172 111.108 106.987C111.273 106.8 111.477 106.651 111.722 106.54C111.966 106.426 112.25 106.369 112.574 106.369C113.006 106.369 113.416 106.484 113.805 106.714C114.197 106.945 114.516 107.307 114.76 107.801C115.007 108.295 115.131 108.937 115.131 109.727C115.131 110.483 115.013 111.109 114.777 111.607C114.544 112.104 114.232 112.474 113.839 112.719C113.45 112.963 113.023 113.085 112.557 113.085C112.25 113.085 111.976 113.036 111.734 112.936C111.496 112.834 111.291 112.696 111.121 112.523C110.953 112.347 110.824 112.148 110.733 111.926H110.699V115.455H108.347ZM110.648 109.727C110.648 110.045 110.689 110.321 110.771 110.554C110.857 110.784 110.976 110.963 111.129 111.091C111.286 111.216 111.472 111.278 111.688 111.278C111.903 111.278 112.087 111.217 112.237 111.095C112.391 110.97 112.507 110.793 112.587 110.562C112.669 110.33 112.71 110.051 112.71 109.727C112.71 109.403 112.669 109.126 112.587 108.896C112.507 108.663 112.391 108.486 112.237 108.364C112.087 108.239 111.903 108.176 111.688 108.176C111.472 108.176 111.286 108.239 111.129 108.364C110.976 108.486 110.857 108.663 110.771 108.896C110.689 109.126 110.648 109.403 110.648 109.727ZM118.468 104.273V113H116.116V104.273H118.468ZM121.491 113.102C121.073 113.102 120.704 113.034 120.383 112.898C120.065 112.759 119.815 112.548 119.633 112.267C119.451 111.986 119.36 111.628 119.36 111.193C119.36 110.835 119.421 110.53 119.543 110.277C119.665 110.021 119.836 109.812 120.055 109.651C120.273 109.489 120.528 109.365 120.817 109.28C121.11 109.195 121.425 109.139 121.763 109.114C122.13 109.085 122.424 109.051 122.646 109.011C122.87 108.969 123.032 108.911 123.131 108.837C123.231 108.76 123.281 108.659 123.281 108.534V108.517C123.281 108.347 123.215 108.216 123.085 108.125C122.954 108.034 122.786 107.989 122.582 107.989C122.357 107.989 122.174 108.038 122.032 108.138C121.893 108.234 121.809 108.384 121.781 108.585H119.616C119.644 108.187 119.771 107.821 119.995 107.486C120.222 107.148 120.553 106.878 120.988 106.676C121.423 106.472 121.965 106.369 122.616 106.369C123.085 106.369 123.505 106.425 123.877 106.536C124.249 106.643 124.566 106.795 124.827 106.991C125.089 107.185 125.288 107.412 125.424 107.673C125.563 107.932 125.633 108.213 125.633 108.517V113H123.434V112.08H123.383C123.252 112.324 123.093 112.521 122.906 112.672C122.721 112.822 122.509 112.932 122.271 113C122.035 113.068 121.775 113.102 121.491 113.102ZM122.258 111.619C122.437 111.619 122.604 111.582 122.761 111.509C122.92 111.435 123.049 111.328 123.148 111.189C123.248 111.05 123.298 110.881 123.298 110.682V110.136C123.235 110.162 123.168 110.186 123.097 110.209C123.029 110.232 122.955 110.253 122.876 110.273C122.799 110.293 122.717 110.311 122.629 110.328C122.543 110.345 122.454 110.361 122.36 110.375C122.178 110.403 122.029 110.45 121.913 110.516C121.799 110.578 121.714 110.656 121.657 110.75C121.603 110.841 121.576 110.943 121.576 111.057C121.576 111.239 121.64 111.378 121.768 111.474C121.896 111.571 122.059 111.619 122.258 111.619ZM129.91 113.119C129.2 113.119 128.592 112.979 128.086 112.697C127.581 112.413 127.193 112.018 126.923 111.513C126.653 111.004 126.518 110.415 126.518 109.744C126.518 109.074 126.653 108.486 126.923 107.98C127.193 107.472 127.581 107.077 128.086 106.795C128.592 106.511 129.2 106.369 129.91 106.369C130.552 106.369 131.108 106.486 131.576 106.719C132.048 106.949 132.413 107.276 132.672 107.699C132.93 108.119 133.061 108.614 133.064 109.182H130.882C130.85 108.838 130.751 108.577 130.583 108.398C130.419 108.216 130.206 108.125 129.944 108.125C129.74 108.125 129.561 108.185 129.407 108.304C129.254 108.42 129.135 108.598 129.049 108.837C128.964 109.072 128.922 109.369 128.922 109.727C128.922 110.085 128.964 110.384 129.049 110.622C129.135 110.858 129.254 111.036 129.407 111.155C129.561 111.271 129.74 111.33 129.944 111.33C130.118 111.33 130.271 111.29 130.404 111.21C130.538 111.128 130.646 111.009 130.728 110.852C130.814 110.693 130.865 110.5 130.882 110.273H133.064C133.055 110.849 132.923 111.352 132.667 111.781C132.412 112.207 132.049 112.537 131.581 112.77C131.115 113.003 130.558 113.119 129.91 113.119ZM137.17 113.119C136.472 113.119 135.869 112.986 135.364 112.719C134.861 112.449 134.473 112.062 134.2 111.56C133.93 111.054 133.795 110.449 133.795 109.744C133.795 109.068 133.932 108.477 134.205 107.972C134.477 107.466 134.862 107.072 135.359 106.791C135.857 106.51 136.443 106.369 137.119 106.369C137.614 106.369 138.061 106.446 138.462 106.599C138.862 106.753 139.205 106.976 139.489 107.268C139.773 107.558 139.991 107.911 140.145 108.325C140.298 108.74 140.375 109.207 140.375 109.727V110.273H134.528V108.977H138.21C138.207 108.79 138.159 108.625 138.065 108.483C137.974 108.338 137.851 108.226 137.695 108.146C137.541 108.064 137.366 108.023 137.17 108.023C136.98 108.023 136.805 108.064 136.646 108.146C136.487 108.226 136.359 108.337 136.263 108.479C136.169 108.621 136.119 108.787 136.114 108.977V110.375C136.114 110.585 136.158 110.773 136.246 110.938C136.334 111.102 136.46 111.232 136.625 111.325C136.79 111.419 136.989 111.466 137.222 111.466C137.384 111.466 137.531 111.443 137.665 111.398C137.801 111.352 137.918 111.287 138.014 111.202C138.111 111.114 138.182 111.009 138.227 110.886H140.375C140.301 111.341 140.126 111.736 139.851 112.071C139.575 112.403 139.21 112.662 138.756 112.847C138.304 113.028 137.776 113.119 137.17 113.119ZM141.335 113V106.455H143.619V107.699H143.687C143.806 107.239 143.995 106.902 144.254 106.689C144.515 106.476 144.821 106.369 145.17 106.369C145.272 106.369 145.373 106.378 145.473 106.395C145.575 106.409 145.673 106.43 145.767 106.459V108.466C145.65 108.426 145.507 108.396 145.336 108.376C145.166 108.357 145.02 108.347 144.897 108.347C144.667 108.347 144.46 108.399 144.275 108.504C144.093 108.607 143.95 108.751 143.845 108.939C143.74 109.124 143.687 109.341 143.687 109.591V113H141.335Z" fill="black"/>
<path d="M18.3381 6.06605C18.1307 6.06605 17.9439 6.02912 17.7777 5.95526C17.6129 5.87997 17.4822 5.76918 17.3857 5.62287C17.2905 5.47656 17.2429 5.29616 17.2429 5.08168C17.2429 4.89702 17.277 4.74432 17.3452 4.62358C17.4134 4.50284 17.5064 4.40625 17.6243 4.33381C17.7422 4.26136 17.875 4.20668 18.0227 4.16974C18.1719 4.13139 18.326 4.10369 18.4851 4.08665C18.6768 4.06676 18.8324 4.04901 18.9517 4.03338C19.071 4.01634 19.1577 3.99077 19.2116 3.95668C19.267 3.92116 19.2947 3.86648 19.2947 3.79261V3.77983C19.2947 3.61932 19.2472 3.49503 19.152 3.40696C19.0568 3.31889 18.9197 3.27486 18.7408 3.27486C18.5518 3.27486 18.402 3.31605 18.2912 3.39844C18.1818 3.48082 18.108 3.57812 18.0696 3.69034L17.3494 3.58807C17.4063 3.3892 17.5 3.22301 17.6307 3.08949C17.7614 2.95455 17.9212 2.85369 18.1101 2.78693C18.299 2.71875 18.5078 2.68466 18.7365 2.68466C18.8942 2.68466 19.0511 2.70312 19.2074 2.74006C19.3636 2.77699 19.5064 2.83807 19.6357 2.9233C19.7649 3.0071 19.8686 3.12145 19.9467 3.26634C20.0263 3.41122 20.0661 3.59233 20.0661 3.80966V6H19.3246V5.55043H19.299C19.2521 5.64134 19.1861 5.72656 19.1009 5.80611C19.017 5.88423 18.9112 5.94744 18.7834 5.99574C18.657 6.04261 18.5085 6.06605 18.3381 6.06605ZM18.5384 5.49929C18.6932 5.49929 18.8274 5.46875 18.9411 5.40767C19.0547 5.34517 19.142 5.26278 19.2031 5.16051C19.2656 5.05824 19.2969 4.94673 19.2969 4.82599V4.44034C19.2727 4.46023 19.2315 4.47869 19.1733 4.49574C19.1165 4.51278 19.0526 4.5277 18.9815 4.54048C18.9105 4.55327 18.8402 4.56463 18.7706 4.57457C18.701 4.58452 18.6406 4.59304 18.5895 4.60014C18.4744 4.61577 18.3714 4.64134 18.2805 4.67685C18.1896 4.71236 18.1179 4.76207 18.0653 4.82599C18.0128 4.88849 17.9865 4.96946 17.9865 5.06889C17.9865 5.21094 18.0384 5.31818 18.142 5.39062C18.2457 5.46307 18.3778 5.49929 18.5384 5.49929ZM21.6129 4.08239V6H20.8416V2.72727H21.5788V3.28338H21.6172C21.6925 3.10014 21.8125 2.95455 21.9773 2.84659C22.1435 2.73864 22.3487 2.68466 22.593 2.68466C22.8189 2.68466 23.0156 2.73295 23.1832 2.82955C23.3523 2.92614 23.483 3.06605 23.5753 3.24929C23.669 3.43253 23.7152 3.65483 23.7138 3.91619V6H22.9425V4.03551C22.9425 3.81676 22.8857 3.6456 22.772 3.52202C22.6598 3.39844 22.5043 3.33665 22.3054 3.33665C22.1705 3.33665 22.0504 3.36648 21.9453 3.42614C21.8416 3.48437 21.7599 3.56889 21.7003 3.67969C21.642 3.79048 21.6129 3.92472 21.6129 4.08239ZM25.4396 6.06605C25.2322 6.06605 25.0455 6.02912 24.8793 5.95526C24.7145 5.87997 24.5838 5.76918 24.4872 5.62287C24.392 5.47656 24.3445 5.29616 24.3445 5.08168C24.3445 4.89702 24.3786 4.74432 24.4467 4.62358C24.5149 4.50284 24.608 4.40625 24.7259 4.33381C24.8438 4.26136 24.9766 4.20668 25.1243 4.16974C25.2734 4.13139 25.4276 4.10369 25.5866 4.08665C25.7784 4.06676 25.9339 4.04901 26.0533 4.03338C26.1726 4.01634 26.2592 3.99077 26.3132 3.95668C26.3686 3.92116 26.3963 3.86648 26.3963 3.79261V3.77983C26.3963 3.61932 26.3487 3.49503 26.2536 3.40696C26.1584 3.31889 26.0213 3.27486 25.8423 3.27486C25.6534 3.27486 25.5036 3.31605 25.3928 3.39844C25.2834 3.48082 25.2095 3.57812 25.1712 3.69034L24.451 3.58807C24.5078 3.3892 24.6016 3.22301 24.7322 3.08949C24.8629 2.95455 25.0227 2.85369 25.2116 2.78693C25.4006 2.71875 25.6094 2.68466 25.8381 2.68466C25.9957 2.68466 26.1527 2.70312 26.3089 2.74006C26.4652 2.77699 26.608 2.83807 26.7372 2.9233C26.8665 3.0071 26.9702 3.12145 27.0483 3.26634C27.1278 3.41122 27.1676 3.59233 27.1676 3.80966V6H26.4261V5.55043H26.4006C26.3537 5.64134 26.2876 5.72656 26.2024 5.80611C26.1186 5.88423 26.0128 5.94744 25.8849 5.99574C25.7585 6.04261 25.6101 6.06605 25.4396 6.06605ZM25.6399 5.49929C25.7947 5.49929 25.929 5.46875 26.0426 5.40767C26.1563 5.34517 26.2436 5.26278 26.3047 5.16051C26.3672 5.05824 26.3984 4.94673 26.3984 4.82599V4.44034C26.3743 4.46023 26.3331 4.47869 26.2749 4.49574C26.218 4.51278 26.1541 4.5277 26.0831 4.54048C26.0121 4.55327 25.9418 4.56463 25.8722 4.57457C25.8026 4.58452 25.7422 4.59304 25.6911 4.60014C25.576 4.61577 25.473 4.64134 25.3821 4.67685C25.2912 4.71236 25.2195 4.76207 25.1669 4.82599C25.1143 4.88849 25.0881 4.96946 25.0881 5.06889C25.0881 5.21094 25.1399 5.31818 25.2436 5.39062C25.3473 5.46307 25.4794 5.49929 25.6399 5.49929ZM28.7145 1.63636V6H27.9432V1.63636H28.7145ZM29.987 7.22727C29.8819 7.22727 29.7846 7.21875 29.6951 7.2017C29.6071 7.18608 29.5368 7.16761 29.4842 7.14631L29.6632 6.54545C29.7754 6.57813 29.8755 6.59375 29.9636 6.59233C30.0517 6.59091 30.1291 6.56321 30.1958 6.50923C30.264 6.45668 30.3216 6.36861 30.3684 6.24503L30.4345 6.06818L29.2477 2.72727H30.0659L30.8201 5.19886H30.8542L31.6106 2.72727H32.4309L31.1206 6.39631C31.0595 6.5696 30.9785 6.71804 30.8777 6.84162C30.7768 6.96662 30.6532 7.06179 30.5069 7.12713C30.362 7.19389 30.1887 7.22727 29.987 7.22727ZM34.5989 2.72727V3.32386H32.7175V2.72727H34.5989ZM33.182 1.94318H33.9533V5.01562C33.9533 5.11932 33.9689 5.19886 34.0002 5.25426C34.0328 5.30824 34.0755 5.34517 34.128 5.36506C34.1806 5.38494 34.2388 5.39489 34.3027 5.39489C34.351 5.39489 34.3951 5.39134 34.4348 5.38423C34.476 5.37713 34.5073 5.37074 34.5286 5.36506L34.6586 5.96804C34.6174 5.98224 34.5584 5.99787 34.4817 6.01491C34.4064 6.03196 34.3141 6.0419 34.2047 6.04474C34.0115 6.05043 33.8375 6.02131 33.6827 5.95739C33.5279 5.89205 33.405 5.79119 33.3141 5.65483C33.2246 5.51847 33.1806 5.34801 33.182 5.14347V1.94318ZM35.244 6V2.72727H36.0153V6H35.244ZM35.6317 2.26278C35.5096 2.26278 35.4045 2.2223 35.3164 2.14134C35.2283 2.05895 35.1843 1.96023 35.1843 1.84517C35.1843 1.72869 35.2283 1.62997 35.3164 1.54901C35.4045 1.46662 35.5096 1.42543 35.6317 1.42543C35.7553 1.42543 35.8604 1.46662 35.9471 1.54901C36.0352 1.62997 36.0792 1.72869 36.0792 1.84517C36.0792 1.96023 36.0352 2.05895 35.9471 2.14134C35.8604 2.2223 35.7553 2.26278 35.6317 2.26278ZM38.236 6.06392C37.9093 6.06392 37.6287 5.99219 37.3944 5.84872C37.1614 5.70526 36.9817 5.5071 36.8553 5.25426C36.7303 5 36.6678 4.70739 36.6678 4.37642C36.6678 4.04403 36.7317 3.75071 36.8596 3.49645C36.9874 3.24077 37.1678 3.0419 37.4007 2.89986C37.6351 2.75639 37.9121 2.68466 38.2317 2.68466C38.4973 2.68466 38.7324 2.73366 38.937 2.83168C39.1429 2.92827 39.307 3.06534 39.4292 3.2429C39.5513 3.41903 39.6209 3.625 39.638 3.8608H38.9007C38.8709 3.70312 38.7999 3.57173 38.6877 3.46662C38.5769 3.36009 38.4284 3.30682 38.2424 3.30682C38.0847 3.30682 37.9462 3.34943 37.8269 3.43466C37.7076 3.51847 37.6145 3.6392 37.5478 3.79688C37.4824 3.95455 37.4498 4.14347 37.4498 4.36364C37.4498 4.58665 37.4824 4.77841 37.5478 4.93892C37.6131 5.09801 37.7047 5.22088 37.8226 5.30753C37.9419 5.39276 38.0819 5.43537 38.2424 5.43537C38.356 5.43537 38.4576 5.41406 38.5471 5.37145C38.638 5.32741 38.714 5.2642 38.775 5.18182C38.8361 5.09943 38.878 4.99929 38.9007 4.88139H39.638C39.6195 5.11293 39.5513 5.31818 39.4334 5.49716C39.3155 5.67472 39.155 5.81392 38.9519 5.91477C38.7488 6.0142 38.5101 6.06392 38.236 6.06392ZM42.858 3.59233L42.1548 3.66903C42.1349 3.59801 42.1001 3.53125 42.0504 3.46875C42.0021 3.40625 41.9368 3.35582 41.8544 3.31747C41.772 3.27912 41.6712 3.25994 41.5518 3.25994C41.3913 3.25994 41.2564 3.29474 41.147 3.36435C41.0391 3.43395 40.9858 3.52415 40.9872 3.63494C40.9858 3.73011 41.0206 3.80753 41.0916 3.86719C41.1641 3.92685 41.2834 3.97585 41.4496 4.0142L42.0078 4.13352C42.3175 4.20028 42.5476 4.30611 42.6982 4.45099C42.8501 4.59588 42.9268 4.78551 42.9283 5.01989C42.9268 5.22585 42.8665 5.40767 42.7472 5.56534C42.6293 5.72159 42.4652 5.84375 42.255 5.93182C42.0447 6.01989 41.8033 6.06392 41.5305 6.06392C41.13 6.06392 40.8075 5.98011 40.5632 5.8125C40.3189 5.64347 40.1733 5.40838 40.1264 5.10724L40.8786 5.0348C40.9126 5.18253 40.9851 5.29403 41.0959 5.36932C41.2067 5.4446 41.3509 5.48224 41.5284 5.48224C41.7116 5.48224 41.8587 5.4446 41.9695 5.36932C42.0817 5.29403 42.1378 5.20099 42.1378 5.0902C42.1378 4.99645 42.1016 4.91903 42.0291 4.85795C41.9581 4.79687 41.8473 4.75 41.6967 4.71733L41.1385 4.60014C40.8246 4.5348 40.5923 4.42472 40.4418 4.26989C40.2912 4.11364 40.2166 3.91619 40.218 3.67756C40.2166 3.47585 40.2713 3.30114 40.3821 3.15341C40.4943 3.00426 40.6499 2.8892 40.8487 2.80824C41.049 2.72585 41.2798 2.68466 41.5412 2.68466C41.9247 2.68466 42.2266 2.76634 42.4467 2.92969C42.6683 3.09304 42.8054 3.31392 42.858 3.59233Z" fill="#B6AEAE"/>
<path d="M63.0717 7L62.147 3.72727H62.9332L63.5085 6.02841H63.5384L64.1264 3.72727H64.9041L65.4922 6.01562H65.5241L66.0909 3.72727H66.8793L65.9524 7H65.1491L64.5355 4.78835H64.4908L63.8771 7H63.0717ZM67.4178 7V3.72727H68.1891V7H67.4178ZM67.8056 3.26278C67.6834 3.26278 67.5783 3.2223 67.4902 3.14134C67.4022 3.05895 67.3581 2.96023 67.3581 2.84517C67.3581 2.72869 67.4022 2.62997 67.4902 2.54901C67.5783 2.46662 67.6834 2.42543 67.8056 2.42543C67.9292 2.42543 68.0343 2.46662 68.1209 2.54901C68.209 2.62997 68.253 2.72869 68.253 2.84517C68.253 2.96023 68.209 3.05895 68.1209 3.14134C68.0343 3.2223 67.9292 3.26278 67.8056 3.26278ZM69.7536 2.63636V7H68.9822V2.63636H69.7536ZM71.7612 7.05753C71.5041 7.05753 71.274 6.99148 71.0708 6.85938C70.8677 6.72727 70.7072 6.53551 70.5893 6.28409C70.4714 6.03267 70.4125 5.72727 70.4125 5.3679C70.4125 5.00426 70.4721 4.69744 70.5914 4.44744C70.7122 4.19602 70.8748 4.00639 71.0794 3.87855C71.2839 3.74929 71.5119 3.68466 71.7633 3.68466C71.9551 3.68466 72.1127 3.71733 72.2363 3.78267C72.3599 3.84659 72.4579 3.92401 72.5304 4.01491C72.6028 4.1044 72.6589 4.18892 72.6987 4.26847H72.7306V2.63636H73.5041V7H72.7456V6.48438H72.6987C72.6589 6.56392 72.6014 6.64844 72.5261 6.73793C72.4508 6.82599 72.3514 6.90128 72.2278 6.96378C72.1042 7.02628 71.9487 7.05753 71.7612 7.05753ZM71.9764 6.42472C72.1397 6.42472 72.2789 6.38068 72.394 6.29261C72.5091 6.20312 72.5964 6.07884 72.6561 5.91974C72.7157 5.76065 72.7456 5.57528 72.7456 5.36364C72.7456 5.15199 72.7157 4.96804 72.6561 4.81179C72.5978 4.65554 72.5112 4.53409 72.3961 4.44744C72.2825 4.3608 72.1426 4.31747 71.9764 4.31747C71.8045 4.31747 71.661 4.36222 71.546 4.4517C71.4309 4.54119 71.3443 4.66477 71.286 4.82244C71.2278 4.98011 71.1987 5.16051 71.1987 5.36364C71.1987 5.56818 71.2278 5.75071 71.286 5.91122C71.3457 6.07031 71.4331 6.19602 71.5481 6.28835C71.6646 6.37926 71.8074 6.42472 71.9764 6.42472ZM74.3601 7V2.63636H75.1314V4.26847H75.1634C75.2031 4.18892 75.2592 4.1044 75.3317 4.01491C75.4041 3.92401 75.5021 3.84659 75.6257 3.78267C75.7493 3.71733 75.907 3.68466 76.0987 3.68466C76.3516 3.68466 76.5795 3.74929 76.7827 3.87855C76.9872 4.00639 77.1491 4.19602 77.2685 4.44744C77.3892 4.69744 77.4496 5.00426 77.4496 5.3679C77.4496 5.72727 77.3906 6.03267 77.2727 6.28409C77.1548 6.53551 76.9943 6.72727 76.7912 6.85938C76.5881 6.99148 76.358 7.05753 76.1009 7.05753C75.9134 7.05753 75.7578 7.02628 75.6342 6.96378C75.5107 6.90128 75.4112 6.82599 75.3359 6.73793C75.2621 6.64844 75.2045 6.56392 75.1634 6.48438H75.1186V7H74.3601ZM75.1165 5.36364C75.1165 5.57528 75.1463 5.76065 75.206 5.91974C75.267 6.07884 75.3544 6.20312 75.468 6.29261C75.5831 6.38068 75.7223 6.42472 75.8857 6.42472C76.0561 6.42472 76.1989 6.37926 76.3139 6.28835C76.429 6.19602 76.5156 6.07031 76.5739 5.91122C76.6335 5.75071 76.6634 5.56818 76.6634 5.36364C76.6634 5.16051 76.6342 4.98011 76.576 4.82244C76.5178 4.66477 76.4311 4.54119 76.3161 4.4517C76.201 4.36222 76.0575 4.31747 75.8857 4.31747C75.7209 4.31747 75.581 4.3608 75.4659 4.44744C75.3509 4.53409 75.2635 4.65554 75.2038 4.81179C75.1456 4.96804 75.1165 5.15199 75.1165 5.36364ZM79.5542 7.06392C79.226 7.06392 78.9426 6.99574 78.704 6.85938C78.4668 6.72159 78.2843 6.52699 78.1564 6.27557C78.0286 6.02273 77.9647 5.72514 77.9647 5.38281C77.9647 5.04616 78.0286 4.75071 78.1564 4.49645C78.2857 4.24077 78.4661 4.0419 78.6976 3.89986C78.9292 3.75639 79.2012 3.68466 79.5137 3.68466C79.7154 3.68466 79.9057 3.71733 80.0847 3.78267C80.2651 3.84659 80.4242 3.94602 80.562 4.08097C80.7012 4.21591 80.8105 4.38778 80.8901 4.59659C80.9696 4.80398 81.0094 5.05114 81.0094 5.33807V5.57457H78.3269V5.05469H80.2701C80.2686 4.90696 80.2367 4.77557 80.1742 4.66051C80.1117 4.54403 80.0243 4.45241 79.9121 4.38565C79.8013 4.31889 79.6721 4.28551 79.5243 4.28551C79.3667 4.28551 79.2282 4.32386 79.1088 4.40057C78.9895 4.47585 78.8965 4.57528 78.8297 4.69886C78.7644 4.82102 78.731 4.95526 78.7296 5.10156V5.5554C78.7296 5.74574 78.7644 5.90909 78.834 6.04545C78.9036 6.1804 79.0009 6.28409 79.1259 6.35653C79.2509 6.42756 79.3972 6.46307 79.5648 6.46307C79.677 6.46307 79.7786 6.44744 79.8695 6.41619C79.9604 6.38352 80.0392 6.33594 80.106 6.27344C80.1728 6.21094 80.2232 6.13352 80.2573 6.04119L80.9775 6.12216C80.932 6.3125 80.8453 6.47869 80.7175 6.62074C80.5911 6.76136 80.4292 6.87074 80.2317 6.94886C80.0343 7.02557 79.8084 7.06392 79.5542 7.06392ZM81.6619 7V3.72727H82.4098V4.27273H82.4439C82.5036 4.08381 82.6058 3.93821 82.7507 3.83594C82.897 3.73224 83.0639 3.6804 83.2514 3.6804C83.294 3.6804 83.3416 3.68253 83.3942 3.68679C83.4482 3.68963 83.4929 3.6946 83.5284 3.7017V4.41122C83.4957 4.39986 83.4439 4.38991 83.3729 4.38139C83.3033 4.37145 83.2358 4.36648 83.1705 4.36648C83.0298 4.36648 82.9034 4.39702 82.7912 4.4581C82.6804 4.51776 82.593 4.60085 82.5291 4.70739C82.4652 4.81392 82.4332 4.93679 82.4332 5.07599V7H81.6619ZM84.0408 7V3.72727H84.7887V4.27273H84.8228C84.8825 4.08381 84.9847 3.93821 85.1296 3.83594C85.2759 3.73224 85.4428 3.6804 85.6303 3.6804C85.6729 3.6804 85.7205 3.68253 85.7731 3.68679C85.8271 3.68963 85.8718 3.6946 85.9073 3.7017V4.41122C85.8746 4.39986 85.8228 4.38991 85.7518 4.38139C85.6822 4.37145 85.6147 4.36648 85.5494 4.36648C85.4087 4.36648 85.2823 4.39702 85.1701 4.4581C85.0593 4.51776 84.9719 4.60085 84.908 4.70739C84.8441 4.81392 84.8121 4.93679 84.8121 5.07599V7H84.0408ZM86.4197 7V3.72727H87.1911V7H86.4197ZM86.8075 3.26278C86.6854 3.26278 86.5803 3.2223 86.4922 3.14134C86.4041 3.05895 86.3601 2.96023 86.3601 2.84517C86.3601 2.72869 86.4041 2.62997 86.4922 2.54901C86.5803 2.46662 86.6854 2.42543 86.8075 2.42543C86.9311 2.42543 87.0362 2.46662 87.1229 2.54901C87.2109 2.62997 87.255 2.72869 87.255 2.84517C87.255 2.96023 87.2109 3.05895 87.1229 3.14134C87.0362 3.2223 86.9311 3.26278 86.8075 3.26278ZM89.4331 7.06392C89.1049 7.06392 88.8216 6.99574 88.5829 6.85938C88.3457 6.72159 88.1632 6.52699 88.0353 6.27557C87.9075 6.02273 87.8436 5.72514 87.8436 5.38281C87.8436 5.04616 87.9075 4.75071 88.0353 4.49645C88.1646 4.24077 88.345 4.0419 88.5765 3.89986C88.8081 3.75639 89.0801 3.68466 89.3926 3.68466C89.5943 3.68466 89.7846 3.71733 89.9636 3.78267C90.144 3.84659 90.3031 3.94602 90.4409 4.08097C90.5801 4.21591 90.6895 4.38778 90.769 4.59659C90.8485 4.80398 90.8883 5.05114 90.8883 5.33807V5.57457H88.2058V5.05469H90.149C90.1475 4.90696 90.1156 4.77557 90.0531 4.66051C89.9906 4.54403 89.9032 4.45241 89.791 4.38565C89.6802 4.31889 89.551 4.28551 89.4032 4.28551C89.2456 4.28551 89.1071 4.32386 88.9877 4.40057C88.8684 4.47585 88.7754 4.57528 88.7086 4.69886C88.6433 4.82102 88.6099 4.95526 88.6085 5.10156V5.5554C88.6085 5.74574 88.6433 5.90909 88.7129 6.04545C88.7825 6.1804 88.8798 6.28409 89.0048 6.35653C89.1298 6.42756 89.2761 6.46307 89.4437 6.46307C89.5559 6.46307 89.6575 6.44744 89.7484 6.41619C89.8393 6.38352 89.9181 6.33594 89.9849 6.27344C90.0517 6.21094 90.1021 6.13352 90.1362 6.04119L90.8564 6.12216C90.8109 6.3125 90.7243 6.47869 90.5964 6.62074C90.47 6.76136 90.3081 6.87074 90.1106 6.94886C89.9132 7.02557 89.6873 7.06392 89.4331 7.06392ZM94.1275 4.59233L93.4244 4.66903C93.4045 4.59801 93.3697 4.53125 93.32 4.46875C93.2717 4.40625 93.2063 4.35582 93.1239 4.31747C93.0415 4.27912 92.9407 4.25994 92.8214 4.25994C92.6609 4.25994 92.5259 4.29474 92.4165 4.36435C92.3086 4.43395 92.2553 4.52415 92.2567 4.63494C92.2553 4.73011 92.2901 4.80753 92.3612 4.86719C92.4336 4.92685 92.5529 4.97585 92.7191 5.0142L93.2773 5.13352C93.587 5.20028 93.8171 5.30611 93.9677 5.45099C94.1197 5.59588 94.1964 5.78551 94.1978 6.01989C94.1964 6.22585 94.136 6.40767 94.0167 6.56534C93.8988 6.72159 93.7347 6.84375 93.5245 6.93182C93.3143 7.01989 93.0728 7.06392 92.8001 7.06392C92.3995 7.06392 92.0771 6.98011 91.8327 6.8125C91.5884 6.64347 91.4428 6.40838 91.396 6.10724L92.1481 6.0348C92.1822 6.18253 92.2546 6.29403 92.3654 6.36932C92.4762 6.4446 92.6204 6.48224 92.7979 6.48224C92.9812 6.48224 93.1282 6.4446 93.239 6.36932C93.3512 6.29403 93.4073 6.20099 93.4073 6.0902C93.4073 5.99645 93.3711 5.91903 93.2987 5.85795C93.2276 5.79687 93.1168 5.75 92.9663 5.71733L92.408 5.60014C92.0941 5.5348 91.8619 5.42472 91.7113 5.26989C91.5607 5.11364 91.4862 4.91619 91.4876 4.67756C91.4862 4.47585 91.5408 4.30114 91.6516 4.15341C91.7638 4.00426 91.9194 3.8892 92.1183 3.80824C92.3185 3.72585 92.5494 3.68466 92.8107 3.68466C93.1942 3.68466 93.4961 3.76634 93.7163 3.92969C93.9379 4.09304 94.0749 4.31392 94.1275 4.59233Z" fill="#B6AEAE"/>
<path d="M120.824 7.06392C120.504 7.06392 120.227 6.99361 119.993 6.85298C119.759 6.71236 119.577 6.51562 119.447 6.26278C119.32 6.00994 119.256 5.71449 119.256 5.37642C119.256 5.03835 119.32 4.74219 119.447 4.48793C119.577 4.23366 119.759 4.03622 119.993 3.8956C120.227 3.75497 120.504 3.68466 120.824 3.68466C121.143 3.68466 121.42 3.75497 121.655 3.8956C121.889 4.03622 122.07 4.23366 122.198 4.48793C122.327 4.74219 122.392 5.03835 122.392 5.37642C122.392 5.71449 122.327 6.00994 122.198 6.26278C122.07 6.51562 121.889 6.71236 121.655 6.85298C121.42 6.99361 121.143 7.06392 120.824 7.06392ZM120.828 6.44602C121.001 6.44602 121.146 6.39844 121.263 6.30327C121.379 6.20668 121.466 6.07741 121.523 5.91548C121.581 5.75355 121.61 5.57315 121.61 5.37429C121.61 5.17401 121.581 4.9929 121.523 4.83097C121.466 4.66761 121.379 4.53764 121.263 4.44105C121.146 4.34446 121.001 4.29616 120.828 4.29616C120.651 4.29616 120.503 4.34446 120.385 4.44105C120.268 4.53764 120.181 4.66761 120.123 4.83097C120.066 4.9929 120.038 5.17401 120.038 5.37429C120.038 5.57315 120.066 5.75355 120.123 5.91548C120.181 6.07741 120.268 6.20668 120.385 6.30327C120.503 6.39844 120.651 6.44602 120.828 6.44602ZM123.004 7V6.50994L124.692 4.39418V4.36648H123.059V3.72727H125.635V4.25355L124.029 6.3331V6.3608H125.691V7H123.004ZM127.75 7.06392C127.43 7.06392 127.153 6.99361 126.919 6.85298C126.684 6.71236 126.502 6.51562 126.373 6.26278C126.245 6.00994 126.181 5.71449 126.181 5.37642C126.181 5.03835 126.245 4.74219 126.373 4.48793C126.502 4.23366 126.684 4.03622 126.919 3.8956C127.153 3.75497 127.43 3.68466 127.75 3.68466C128.069 3.68466 128.346 3.75497 128.581 3.8956C128.815 4.03622 128.996 4.23366 129.124 4.48793C129.253 4.74219 129.318 5.03835 129.318 5.37642C129.318 5.71449 129.253 6.00994 129.124 6.26278C128.996 6.51562 128.815 6.71236 128.581 6.85298C128.346 6.99361 128.069 7.06392 127.75 7.06392ZM127.754 6.44602C127.927 6.44602 128.072 6.39844 128.189 6.30327C128.305 6.20668 128.392 6.07741 128.449 5.91548C128.507 5.75355 128.536 5.57315 128.536 5.37429C128.536 5.17401 128.507 4.9929 128.449 4.83097C128.392 4.66761 128.305 4.53764 128.189 4.44105C128.072 4.34446 127.927 4.29616 127.754 4.29616C127.576 4.29616 127.429 4.34446 127.311 4.44105C127.194 4.53764 127.107 4.66761 127.049 4.83097C126.992 4.9929 126.963 5.17401 126.963 5.37429C126.963 5.57315 126.992 5.75355 127.049 5.91548C127.107 6.07741 127.194 6.20668 127.311 6.30327C127.429 6.39844 127.576 6.44602 127.754 6.44602ZM130.744 5.08239V7H129.972V3.72727H130.71V4.28338H130.748C130.823 4.10014 130.943 3.95455 131.108 3.84659C131.274 3.73864 131.48 3.68466 131.724 3.68466C131.95 3.68466 132.146 3.73295 132.314 3.82955C132.483 3.92614 132.614 4.06605 132.706 4.24929C132.8 4.43253 132.846 4.65483 132.845 4.91619V7H132.073V5.03551C132.073 4.81676 132.017 4.6456 131.903 4.52202C131.791 4.39844 131.635 4.33665 131.436 4.33665C131.301 4.33665 131.181 4.36648 131.076 4.42614C130.972 4.48437 130.891 4.56889 130.831 4.67969C130.773 4.79048 130.744 4.92472 130.744 5.08239Z" fill="#B6AEAE"/>
<path d="M152.876 8.22727C152.771 8.22727 152.673 8.21875 152.584 8.2017C152.496 8.18608 152.425 8.16761 152.373 8.14631L152.552 7.54545C152.664 7.57813 152.764 7.59375 152.852 7.59233C152.94 7.59091 153.018 7.56321 153.085 7.50923C153.153 7.45668 153.21 7.36861 153.257 7.24503L153.323 7.06818L152.136 3.72727H152.955L153.709 6.19886H153.743L154.499 3.72727H155.32L154.009 7.39631C153.948 7.5696 153.867 7.71804 153.766 7.84162C153.665 7.96662 153.542 8.06179 153.396 8.12713C153.251 8.19389 153.077 8.22727 152.876 8.22727ZM156.701 7.06605C156.494 7.06605 156.307 7.02912 156.141 6.95526C155.976 6.87997 155.846 6.76918 155.749 6.62287C155.654 6.47656 155.606 6.29616 155.606 6.08168C155.606 5.89702 155.64 5.74432 155.708 5.62358C155.777 5.50284 155.87 5.40625 155.988 5.33381C156.105 5.26136 156.238 5.20668 156.386 5.16974C156.535 5.13139 156.689 5.10369 156.848 5.08665C157.04 5.06676 157.196 5.04901 157.315 5.03338C157.434 5.01634 157.521 4.99077 157.575 4.95668C157.63 4.92116 157.658 4.86648 157.658 4.79261V4.77983C157.658 4.61932 157.61 4.49503 157.515 4.40696C157.42 4.31889 157.283 4.27486 157.104 4.27486C156.915 4.27486 156.765 4.31605 156.654 4.39844C156.545 4.48082 156.471 4.57812 156.433 4.69034L155.713 4.58807C155.77 4.3892 155.863 4.22301 155.994 4.08949C156.125 3.95455 156.284 3.85369 156.473 3.78693C156.662 3.71875 156.871 3.68466 157.1 3.68466C157.257 3.68466 157.414 3.70312 157.571 3.74006C157.727 3.77699 157.87 3.83807 157.999 3.9233C158.128 4.0071 158.232 4.12145 158.31 4.26634C158.39 4.41122 158.429 4.59233 158.429 4.80966V7H157.688V6.55043H157.662C157.615 6.64134 157.549 6.72656 157.464 6.80611C157.38 6.88423 157.275 6.94744 157.147 6.99574C157.02 7.04261 156.872 7.06605 156.701 7.06605ZM156.902 6.49929C157.056 6.49929 157.191 6.46875 157.304 6.40767C157.418 6.34517 157.505 6.26278 157.566 6.16051C157.629 6.05824 157.66 5.94673 157.66 5.82599V5.44034C157.636 5.46023 157.595 5.47869 157.537 5.49574C157.48 5.51278 157.416 5.5277 157.345 5.54048C157.274 5.55327 157.203 5.56463 157.134 5.57457C157.064 5.58452 157.004 5.59304 156.953 5.60014C156.838 5.61577 156.735 5.64134 156.644 5.67685C156.553 5.71236 156.481 5.76207 156.429 5.82599C156.376 5.88849 156.35 5.96946 156.35 6.06889C156.35 6.21094 156.402 6.31818 156.505 6.39062C156.609 6.46307 156.741 6.49929 156.902 6.49929ZM159.976 5.08239V7H159.205V3.72727H159.942V4.28338H159.98C160.056 4.10014 160.176 3.95455 160.341 3.84659C160.507 3.73864 160.712 3.68466 160.956 3.68466C161.182 3.68466 161.379 3.73295 161.547 3.82955C161.716 3.92614 161.846 4.06605 161.939 4.24929C162.032 4.43253 162.078 4.65483 162.077 4.91619V7H161.306V5.03551C161.306 4.81676 161.249 4.6456 161.135 4.52202C161.023 4.39844 160.868 4.33665 160.669 4.33665C160.534 4.33665 160.414 4.36648 160.309 4.42614C160.205 4.48437 160.123 4.56889 160.064 4.67969C160.005 4.79048 159.976 4.92472 159.976 5.08239ZM164.076 7.05753C163.819 7.05753 163.588 6.99148 163.385 6.85938C163.182 6.72727 163.022 6.53551 162.904 6.28409C162.786 6.03267 162.727 5.72727 162.727 5.3679C162.727 5.00426 162.787 4.69744 162.906 4.44744C163.027 4.19602 163.189 4.00639 163.394 3.87855C163.598 3.74929 163.826 3.68466 164.078 3.68466C164.27 3.68466 164.427 3.71733 164.551 3.78267C164.674 3.84659 164.772 3.92401 164.845 4.01491C164.917 4.1044 164.973 4.18892 165.013 4.26847H165.045V2.63636H165.819V7H165.06V6.48438H165.013C164.973 6.56392 164.916 6.64844 164.841 6.73793C164.765 6.82599 164.666 6.90128 164.542 6.96378C164.419 7.02628 164.263 7.05753 164.076 7.05753ZM164.291 6.42472C164.454 6.42472 164.593 6.38068 164.708 6.29261C164.824 6.20312 164.911 6.07884 164.971 5.91974C165.03 5.76065 165.06 5.57528 165.06 5.36364C165.06 5.15199 165.03 4.96804 164.971 4.81179C164.912 4.65554 164.826 4.53409 164.711 4.44744C164.597 4.3608 164.457 4.31747 164.291 4.31747C164.119 4.31747 163.975 4.36222 163.86 4.4517C163.745 4.54119 163.659 4.66477 163.6 4.82244C163.542 4.98011 163.513 5.16051 163.513 5.36364C163.513 5.56818 163.542 5.75071 163.6 5.91122C163.66 6.07031 163.748 6.19602 163.863 6.28835C163.979 6.37926 164.122 6.42472 164.291 6.42472ZM168.089 7.06392C167.761 7.06392 167.478 6.99574 167.239 6.85938C167.002 6.72159 166.819 6.52699 166.692 6.27557C166.564 6.02273 166.5 5.72514 166.5 5.38281C166.5 5.04616 166.564 4.75071 166.692 4.49645C166.821 4.24077 167.001 4.0419 167.233 3.89986C167.464 3.75639 167.736 3.68466 168.049 3.68466C168.251 3.68466 168.441 3.71733 168.62 3.78267C168.8 3.84659 168.959 3.94602 169.097 4.08097C169.236 4.21591 169.346 4.38778 169.425 4.59659C169.505 4.80398 169.545 5.05114 169.545 5.33807V5.57457H166.862V5.05469H168.805C168.804 4.90696 168.772 4.77557 168.709 4.66051C168.647 4.54403 168.559 4.45241 168.447 4.38565C168.336 4.31889 168.207 4.28551 168.059 4.28551C167.902 4.28551 167.763 4.32386 167.644 4.40057C167.525 4.47585 167.432 4.57528 167.365 4.69886C167.3 4.82102 167.266 4.95526 167.265 5.10156V5.5554C167.265 5.74574 167.3 5.90909 167.369 6.04545C167.439 6.1804 167.536 6.28409 167.661 6.35653C167.786 6.42756 167.932 6.46307 168.1 6.46307C168.212 6.46307 168.314 6.44744 168.405 6.41619C168.496 6.38352 168.574 6.33594 168.641 6.27344C168.708 6.21094 168.758 6.13352 168.792 6.04119L169.513 6.12216C169.467 6.3125 169.381 6.47869 169.253 6.62074C169.126 6.76136 168.964 6.87074 168.767 6.94886C168.569 7.02557 168.344 7.06392 168.089 7.06392ZM170.757 3.72727L171.418 4.93537L172.089 3.72727H172.905L171.919 5.36364L172.922 7H172.11L171.418 5.82173L170.732 7H169.914L170.911 5.36364L169.939 3.72727H170.757ZM174.99 7V3.72727H175.727V4.28338H175.766C175.834 4.09588 175.947 3.94957 176.104 3.84446C176.262 3.73793 176.45 3.68466 176.669 3.68466C176.891 3.68466 177.077 3.73864 177.229 3.84659C177.383 3.95312 177.491 4.09872 177.553 4.28338H177.587C177.66 4.10156 177.782 3.95668 177.954 3.84872C178.127 3.73935 178.332 3.68466 178.57 3.68466C178.871 3.68466 179.116 3.77983 179.307 3.97017C179.497 4.16051 179.592 4.43821 179.592 4.80327V7H178.819V4.92259C178.819 4.71946 178.765 4.57102 178.657 4.47727C178.549 4.3821 178.417 4.33452 178.261 4.33452C178.075 4.33452 177.929 4.39276 177.824 4.50923C177.72 4.62429 177.668 4.77415 177.668 4.95881V7H176.912V4.89062C176.912 4.72159 176.861 4.58665 176.759 4.4858C176.658 4.38494 176.526 4.33452 176.362 4.33452C176.251 4.33452 176.151 4.36293 176.06 4.41974C175.969 4.47514 175.896 4.55398 175.842 4.65625C175.788 4.7571 175.761 4.875 175.761 5.00994V7H174.99ZM181.317 7.06605C181.109 7.06605 180.922 7.02912 180.756 6.95526C180.591 6.87997 180.461 6.76918 180.364 6.62287C180.269 6.47656 180.221 6.29616 180.221 6.08168C180.221 5.89702 180.256 5.74432 180.324 5.62358C180.392 5.50284 180.485 5.40625 180.603 5.33381C180.721 5.26136 180.854 5.20668 181.001 5.16974C181.15 5.13139 181.305 5.10369 181.464 5.08665C181.655 5.06676 181.811 5.04901 181.93 5.03338C182.05 5.01634 182.136 4.99077 182.19 4.95668C182.246 4.92116 182.273 4.86648 182.273 4.79261V4.77983C182.273 4.61932 182.226 4.49503 182.131 4.40696C182.035 4.31889 181.898 4.27486 181.719 4.27486C181.53 4.27486 181.381 4.31605 181.27 4.39844C181.16 4.48082 181.086 4.57812 181.048 4.69034L180.328 4.58807C180.385 4.3892 180.479 4.22301 180.609 4.08949C180.74 3.95455 180.9 3.85369 181.089 3.78693C181.278 3.71875 181.486 3.68466 181.715 3.68466C181.873 3.68466 182.03 3.70312 182.186 3.74006C182.342 3.77699 182.485 3.83807 182.614 3.9233C182.743 4.0071 182.847 4.12145 182.925 4.26634C183.005 4.41122 183.045 4.59233 183.045 4.80966V7H182.303V6.55043H182.278C182.231 6.64134 182.165 6.72656 182.079 6.80611C181.996 6.88423 181.89 6.94744 181.762 6.99574C181.635 7.04261 181.487 7.06605 181.317 7.06605ZM181.517 6.49929C181.672 6.49929 181.806 6.46875 181.92 6.40767C182.033 6.34517 182.121 6.26278 182.182 6.16051C182.244 6.05824 182.275 5.94673 182.275 5.82599V5.44034C182.251 5.46023 182.21 5.47869 182.152 5.49574C182.095 5.51278 182.031 5.5277 181.96 5.54048C181.889 5.55327 181.819 5.56463 181.749 5.57457C181.68 5.58452 181.619 5.59304 181.568 5.60014C181.453 5.61577 181.35 5.64134 181.259 5.67685C181.168 5.71236 181.096 5.76207 181.044 5.82599C180.991 5.88849 180.965 5.96946 180.965 6.06889C180.965 6.21094 181.017 6.31818 181.121 6.39062C181.224 6.46307 181.356 6.49929 181.517 6.49929ZM183.82 7V3.72727H184.568V4.27273H184.602C184.662 4.08381 184.764 3.93821 184.909 3.83594C185.055 3.73224 185.222 3.6804 185.41 3.6804C185.452 3.6804 185.5 3.68253 185.552 3.68679C185.606 3.68963 185.651 3.6946 185.687 3.7017V4.41122C185.654 4.39986 185.602 4.38991 185.531 4.38139C185.461 4.37145 185.394 4.36648 185.329 4.36648C185.188 4.36648 185.062 4.39702 184.949 4.4581C184.839 4.51776 184.751 4.60085 184.687 4.70739C184.623 4.81392 184.591 4.93679 184.591 5.07599V7H183.82ZM186.902 5.97301L186.9 5.0419H187.024L188.2 3.72727H189.101L187.654 5.33807H187.494L186.902 5.97301ZM186.199 7V2.63636H186.97V7H186.199ZM188.253 7L187.188 5.51065L187.708 4.96733L189.176 7H188.253ZM190.929 7.06392C190.601 7.06392 190.318 6.99574 190.079 6.85938C189.842 6.72159 189.659 6.52699 189.531 6.27557C189.404 6.02273 189.34 5.72514 189.34 5.38281C189.34 5.04616 189.404 4.75071 189.531 4.49645C189.661 4.24077 189.841 4.0419 190.073 3.89986C190.304 3.75639 190.576 3.68466 190.889 3.68466C191.09 3.68466 191.281 3.71733 191.46 3.78267C191.64 3.84659 191.799 3.94602 191.937 4.08097C192.076 4.21591 192.186 4.38778 192.265 4.59659C192.345 4.80398 192.384 5.05114 192.384 5.33807V5.57457H189.702V5.05469H191.645C191.644 4.90696 191.612 4.77557 191.549 4.66051C191.487 4.54403 191.399 4.45241 191.287 4.38565C191.176 4.31889 191.047 4.28551 190.899 4.28551C190.742 4.28551 190.603 4.32386 190.484 4.40057C190.365 4.47585 190.271 4.57528 190.205 4.69886C190.139 4.82102 190.106 4.95526 190.105 5.10156V5.5554C190.105 5.74574 190.139 5.90909 190.209 6.04545C190.279 6.1804 190.376 6.28409 190.501 6.35653C190.626 6.42756 190.772 6.46307 190.94 6.46307C191.052 6.46307 191.154 6.44744 191.244 6.41619C191.335 6.38352 191.414 6.33594 191.481 6.27344C191.548 6.21094 191.598 6.13352 191.632 6.04119L192.352 6.12216C192.307 6.3125 192.22 6.47869 192.093 6.62074C191.966 6.76136 191.804 6.87074 191.607 6.94886C191.409 7.02557 191.183 7.06392 190.929 7.06392ZM194.671 3.72727V4.32386H192.79V3.72727H194.671ZM193.254 2.94318H194.026V6.01562C194.026 6.11932 194.041 6.19886 194.072 6.25426C194.105 6.30824 194.148 6.34517 194.2 6.36506C194.253 6.38494 194.311 6.39489 194.375 6.39489C194.423 6.39489 194.467 6.39134 194.507 6.38423C194.548 6.37713 194.58 6.37074 194.601 6.36506L194.731 6.96804C194.69 6.98224 194.631 6.99787 194.554 7.01491C194.479 7.03196 194.386 7.0419 194.277 7.04474C194.084 7.05043 193.91 7.02131 193.755 6.95739C193.6 6.89205 193.477 6.79119 193.386 6.65483C193.297 6.51847 193.253 6.34801 193.254 6.14347V2.94318Z" fill="#B6AEAE"/>
</svg>
