<svg width="504" height="600" viewBox="0 0 504 600" fill="none" xmlns="http://www.w3.org/2000/svg">
<rect y="350" width="234" height="169" rx="8" fill="#161B47"/>
<path d="M100 8.00001C100 3.58173 103.582 0 108 0H504V325H108C103.582 325 100 321.418 100 317V8.00001Z" fill="white"/>
<path d="M259 268C259 263.582 262.582 260 267 260H504V600H267C262.582 600 259 596.418 259 592V268Z" fill="#E1E1E1"/>
<path d="M74.108 432.29H71.983C71.9223 431.941 71.8106 431.633 71.6477 431.364C71.4848 431.091 71.2822 430.86 71.0398 430.67C70.7973 430.481 70.5208 430.339 70.2102 430.244C69.9034 430.146 69.572 430.097 69.2159 430.097C68.5833 430.097 68.0227 430.256 67.5341 430.574C67.0455 430.888 66.6629 431.35 66.3864 431.96C66.1098 432.566 65.9716 433.307 65.9716 434.182C65.9716 435.072 66.1098 435.822 66.3864 436.432C66.6667 437.038 67.0492 437.496 67.5341 437.807C68.0227 438.114 68.5814 438.267 69.2102 438.267C69.5587 438.267 69.8845 438.222 70.1875 438.131C70.4943 438.036 70.7689 437.898 71.0114 437.716C71.2576 437.534 71.464 437.311 71.6307 437.045C71.8011 436.78 71.9186 436.477 71.983 436.136L74.108 436.148C74.0284 436.701 73.8561 437.22 73.5909 437.705C73.3295 438.189 72.9867 438.617 72.5625 438.989C72.1383 439.356 71.642 439.644 71.0739 439.852C70.5057 440.057 69.875 440.159 69.1818 440.159C68.1591 440.159 67.2462 439.922 66.4432 439.449C65.6402 438.975 65.0076 438.292 64.5455 437.398C64.0833 436.504 63.8523 435.432 63.8523 434.182C63.8523 432.928 64.0852 431.856 64.5511 430.966C65.017 430.072 65.6515 429.388 66.4545 428.915C67.2576 428.441 68.1667 428.205 69.1818 428.205C69.8295 428.205 70.4318 428.295 70.9886 428.477C71.5455 428.659 72.0417 428.926 72.4773 429.278C72.9129 429.627 73.2708 430.055 73.5511 430.562C73.8352 431.066 74.0208 431.642 74.108 432.29ZM76.0384 440V428.364H78.1463V438.233H83.2713V440H76.0384ZM87.2088 428.364V440H85.1009V428.364H87.2088ZM93.4602 440V428.364H101.028V430.131H95.5682V433.29H100.636V435.057H95.5682V438.233H101.074V440H93.4602ZM104.94 428.364L107.503 432.625H107.594L110.168 428.364H112.571L108.986 434.182L112.628 440H110.185L107.594 435.767H107.503L104.912 440H102.48L106.156 434.182L102.526 428.364H104.94ZM115.72 440H113.47L117.567 428.364H120.169L124.271 440H122.021L118.913 430.75H118.822L115.72 440ZM115.794 435.438H121.93V437.131H115.794V435.438ZM125.804 428.364H128.384L131.838 436.795H131.974L135.429 428.364H138.009V440H135.986V432.006H135.878L132.662 439.966H131.151L127.935 431.989H127.827V440H125.804V428.364ZM140.304 440V428.364H144.668C145.562 428.364 146.312 428.53 146.918 428.864C147.527 429.197 147.988 429.655 148.298 430.239C148.613 430.818 148.77 431.477 148.77 432.216C148.77 432.962 148.613 433.625 148.298 434.205C147.984 434.784 147.52 435.241 146.906 435.574C146.293 435.903 145.537 436.068 144.639 436.068H141.747V434.335H144.355C144.878 434.335 145.306 434.244 145.639 434.062C145.973 433.881 146.219 433.631 146.378 433.312C146.541 432.994 146.622 432.629 146.622 432.216C146.622 431.803 146.541 431.439 146.378 431.125C146.219 430.811 145.971 430.566 145.634 430.392C145.3 430.214 144.87 430.125 144.344 430.125H142.412V440H140.304ZM150.601 440V428.364H152.709V438.233H157.834V440H150.601ZM159.663 440V428.364H167.232V430.131H161.771V433.29H166.839V435.057H161.771V438.233H167.277V440H159.663Z" fill="#E1E1E1" fill-opacity="0.7"/>
<path d="M238.597 168L235.312 156.364H237.58L239.676 164.915H239.784L242.023 156.364H244.085L246.33 164.92H246.432L248.528 156.364H250.795L247.511 168H245.432L243.102 159.835H243.011L240.676 168H238.597ZM262.03 162.182C262.03 163.436 261.795 164.509 261.325 165.403C260.859 166.294 260.223 166.975 259.416 167.449C258.613 167.922 257.702 168.159 256.683 168.159C255.664 168.159 254.751 167.922 253.945 167.449C253.142 166.972 252.505 166.288 252.036 165.398C251.57 164.504 251.337 163.432 251.337 162.182C251.337 160.928 251.57 159.856 252.036 158.966C252.505 158.072 253.142 157.388 253.945 156.915C254.751 156.441 255.664 156.205 256.683 156.205C257.702 156.205 258.613 156.441 259.416 156.915C260.223 157.388 260.859 158.072 261.325 158.966C261.795 159.856 262.03 160.928 262.03 162.182ZM259.911 162.182C259.911 161.299 259.772 160.555 259.496 159.949C259.223 159.339 258.844 158.879 258.359 158.568C257.875 158.254 257.316 158.097 256.683 158.097C256.051 158.097 255.492 158.254 255.007 158.568C254.522 158.879 254.142 159.339 253.865 159.949C253.592 160.555 253.456 161.299 253.456 162.182C253.456 163.064 253.592 163.811 253.865 164.42C254.142 165.027 254.522 165.487 255.007 165.801C255.492 166.112 256.051 166.267 256.683 166.267C257.316 166.267 257.875 166.112 258.359 165.801C258.844 165.487 259.223 165.027 259.496 164.42C259.772 163.811 259.911 163.064 259.911 162.182ZM264.023 168V156.364H268.386C269.28 156.364 270.03 156.519 270.636 156.83C271.246 157.14 271.706 157.576 272.017 158.136C272.331 158.693 272.489 159.343 272.489 160.085C272.489 160.831 272.33 161.479 272.011 162.028C271.697 162.574 271.233 162.996 270.619 163.295C270.006 163.591 269.252 163.739 268.358 163.739H265.25V161.989H268.074C268.597 161.989 269.025 161.917 269.358 161.773C269.691 161.625 269.938 161.411 270.097 161.131C270.259 160.847 270.341 160.498 270.341 160.085C270.341 159.672 270.259 159.32 270.097 159.028C269.934 158.733 269.686 158.509 269.352 158.358C269.019 158.203 268.589 158.125 268.062 158.125H266.131V168H264.023ZM270.034 162.727L272.915 168H270.562L267.733 162.727H270.034ZM274.429 168V156.364H276.537V161.71H276.679L281.219 156.364H283.793L279.293 161.585L283.832 168H281.298L277.827 163.011L276.537 164.534V168H274.429ZM295.55 159.562C295.497 159.066 295.273 158.68 294.879 158.403C294.489 158.127 293.982 157.989 293.357 157.989C292.917 157.989 292.54 158.055 292.226 158.188C291.911 158.32 291.671 158.5 291.504 158.727C291.338 158.955 291.252 159.214 291.249 159.506C291.249 159.748 291.304 159.958 291.413 160.136C291.527 160.314 291.68 160.466 291.874 160.591C292.067 160.712 292.281 160.814 292.516 160.898C292.75 160.981 292.987 161.051 293.226 161.108L294.317 161.381C294.756 161.483 295.179 161.621 295.584 161.795C295.993 161.97 296.358 162.189 296.68 162.455C297.006 162.72 297.264 163.04 297.453 163.415C297.643 163.79 297.737 164.229 297.737 164.733C297.737 165.415 297.563 166.015 297.214 166.534C296.866 167.049 296.362 167.453 295.703 167.744C295.048 168.032 294.254 168.176 293.322 168.176C292.417 168.176 291.631 168.036 290.964 167.756C290.302 167.475 289.783 167.066 289.408 166.528C289.036 165.991 288.836 165.335 288.805 164.562H290.879C290.91 164.968 291.035 165.305 291.254 165.574C291.474 165.843 291.76 166.044 292.112 166.176C292.468 166.309 292.866 166.375 293.305 166.375C293.764 166.375 294.165 166.307 294.51 166.17C294.858 166.03 295.131 165.837 295.328 165.591C295.525 165.341 295.625 165.049 295.629 164.716C295.625 164.413 295.536 164.163 295.362 163.966C295.188 163.765 294.944 163.598 294.629 163.466C294.319 163.33 293.955 163.208 293.538 163.102L292.214 162.761C291.256 162.515 290.499 162.142 289.942 161.642C289.389 161.138 289.112 160.47 289.112 159.636C289.112 158.951 289.298 158.35 289.669 157.835C290.044 157.32 290.554 156.92 291.197 156.636C291.841 156.348 292.571 156.205 293.385 156.205C294.211 156.205 294.934 156.348 295.555 156.636C296.18 156.92 296.671 157.316 297.027 157.824C297.383 158.328 297.567 158.907 297.578 159.562H295.55ZM309.577 160.29H307.452C307.391 159.941 307.279 159.633 307.116 159.364C306.954 159.091 306.751 158.86 306.509 158.67C306.266 158.481 305.99 158.339 305.679 158.244C305.372 158.146 305.041 158.097 304.685 158.097C304.052 158.097 303.491 158.256 303.003 158.574C302.514 158.888 302.132 159.35 301.855 159.96C301.579 160.566 301.44 161.307 301.44 162.182C301.44 163.072 301.579 163.822 301.855 164.432C302.135 165.038 302.518 165.496 303.003 165.807C303.491 166.114 304.05 166.267 304.679 166.267C305.027 166.267 305.353 166.222 305.656 166.131C305.963 166.036 306.238 165.898 306.48 165.716C306.726 165.534 306.933 165.311 307.099 165.045C307.27 164.78 307.387 164.477 307.452 164.136L309.577 164.148C309.497 164.701 309.325 165.22 309.06 165.705C308.798 166.189 308.455 166.617 308.031 166.989C307.607 167.356 307.111 167.644 306.543 167.852C305.974 168.057 305.344 168.159 304.651 168.159C303.628 168.159 302.715 167.922 301.912 167.449C301.109 166.975 300.476 166.292 300.014 165.398C299.552 164.504 299.321 163.432 299.321 162.182C299.321 160.928 299.554 159.856 300.02 158.966C300.486 158.072 301.12 157.388 301.923 156.915C302.726 156.441 303.635 156.205 304.651 156.205C305.298 156.205 305.901 156.295 306.457 156.477C307.014 156.659 307.51 156.926 307.946 157.278C308.382 157.627 308.74 158.055 309.02 158.562C309.304 159.066 309.49 159.642 309.577 160.29ZM311.507 168V156.364H315.871C316.765 156.364 317.515 156.519 318.121 156.83C318.731 157.14 319.191 157.576 319.501 158.136C319.816 158.693 319.973 159.343 319.973 160.085C319.973 160.831 319.814 161.479 319.496 162.028C319.181 162.574 318.717 162.996 318.104 163.295C317.49 163.591 316.736 163.739 315.842 163.739H312.734V161.989H315.558C316.081 161.989 316.509 161.917 316.842 161.773C317.176 161.625 317.422 161.411 317.581 161.131C317.744 160.847 317.825 160.498 317.825 160.085C317.825 159.672 317.744 159.32 317.581 159.028C317.418 158.733 317.17 158.509 316.837 158.358C316.503 158.203 316.073 158.125 315.547 158.125H313.615V168H311.507ZM317.518 162.727L320.399 168H318.047L315.217 162.727H317.518ZM321.913 168V156.364H329.482V158.131H324.021V161.29H329.089V163.057H324.021V166.233H329.527V168H321.913ZM331.632 168V156.364H339.2V158.131H333.74V161.29H338.808V163.057H333.74V166.233H339.246V168H331.632ZM350.913 156.364V168H349.038L343.555 160.074H343.459V168H341.351V156.364H343.237L348.714 164.295H348.817V156.364H350.913ZM361.798 156.364V168H359.69V158.415H359.622L356.901 160.153V158.222L359.793 156.364H361.798Z" fill="#161B47"/>
<path d="M318.597 436L315.312 424.364H317.58L319.676 432.915H319.784L322.023 424.364H324.085L326.33 432.92H326.432L328.528 424.364H330.795L327.511 436H325.432L323.102 427.835H323.011L320.676 436H318.597ZM342.03 430.182C342.03 431.436 341.795 432.509 341.325 433.403C340.859 434.294 340.223 434.975 339.416 435.449C338.613 435.922 337.702 436.159 336.683 436.159C335.664 436.159 334.751 435.922 333.945 435.449C333.142 434.972 332.505 434.288 332.036 433.398C331.57 432.504 331.337 431.432 331.337 430.182C331.337 428.928 331.57 427.856 332.036 426.966C332.505 426.072 333.142 425.388 333.945 424.915C334.751 424.441 335.664 424.205 336.683 424.205C337.702 424.205 338.613 424.441 339.416 424.915C340.223 425.388 340.859 426.072 341.325 426.966C341.795 427.856 342.03 428.928 342.03 430.182ZM339.911 430.182C339.911 429.299 339.772 428.555 339.496 427.949C339.223 427.339 338.844 426.879 338.359 426.568C337.875 426.254 337.316 426.097 336.683 426.097C336.051 426.097 335.492 426.254 335.007 426.568C334.522 426.879 334.142 427.339 333.865 427.949C333.592 428.555 333.456 429.299 333.456 430.182C333.456 431.064 333.592 431.811 333.865 432.42C334.142 433.027 334.522 433.487 335.007 433.801C335.492 434.112 336.051 434.267 336.683 434.267C337.316 434.267 337.875 434.112 338.359 433.801C338.844 433.487 339.223 433.027 339.496 432.42C339.772 431.811 339.911 431.064 339.911 430.182ZM344.023 436V424.364H348.386C349.28 424.364 350.03 424.519 350.636 424.83C351.246 425.14 351.706 425.576 352.017 426.136C352.331 426.693 352.489 427.343 352.489 428.085C352.489 428.831 352.33 429.479 352.011 430.028C351.697 430.574 351.233 430.996 350.619 431.295C350.006 431.591 349.252 431.739 348.358 431.739H345.25V429.989H348.074C348.597 429.989 349.025 429.917 349.358 429.773C349.691 429.625 349.938 429.411 350.097 429.131C350.259 428.847 350.341 428.498 350.341 428.085C350.341 427.672 350.259 427.32 350.097 427.028C349.934 426.733 349.686 426.509 349.352 426.358C349.019 426.203 348.589 426.125 348.062 426.125H346.131V436H344.023ZM350.034 430.727L352.915 436H350.562L347.733 430.727H350.034ZM354.429 436V424.364H356.537V429.71H356.679L361.219 424.364H363.793L359.293 429.585L363.832 436H361.298L357.827 431.011L356.537 432.534V436H354.429ZM375.55 427.562C375.497 427.066 375.273 426.68 374.879 426.403C374.489 426.127 373.982 425.989 373.357 425.989C372.917 425.989 372.54 426.055 372.226 426.188C371.911 426.32 371.671 426.5 371.504 426.727C371.338 426.955 371.252 427.214 371.249 427.506C371.249 427.748 371.304 427.958 371.413 428.136C371.527 428.314 371.68 428.466 371.874 428.591C372.067 428.712 372.281 428.814 372.516 428.898C372.75 428.981 372.987 429.051 373.226 429.108L374.317 429.381C374.756 429.483 375.179 429.621 375.584 429.795C375.993 429.97 376.358 430.189 376.68 430.455C377.006 430.72 377.264 431.04 377.453 431.415C377.643 431.79 377.737 432.229 377.737 432.733C377.737 433.415 377.563 434.015 377.214 434.534C376.866 435.049 376.362 435.453 375.703 435.744C375.048 436.032 374.254 436.176 373.322 436.176C372.417 436.176 371.631 436.036 370.964 435.756C370.302 435.475 369.783 435.066 369.408 434.528C369.036 433.991 368.836 433.335 368.805 432.562H370.879C370.91 432.968 371.035 433.305 371.254 433.574C371.474 433.843 371.76 434.044 372.112 434.176C372.468 434.309 372.866 434.375 373.305 434.375C373.764 434.375 374.165 434.307 374.51 434.17C374.858 434.03 375.131 433.837 375.328 433.591C375.525 433.341 375.625 433.049 375.629 432.716C375.625 432.413 375.536 432.163 375.362 431.966C375.188 431.765 374.944 431.598 374.629 431.466C374.319 431.33 373.955 431.208 373.538 431.102L372.214 430.761C371.256 430.515 370.499 430.142 369.942 429.642C369.389 429.138 369.112 428.47 369.112 427.636C369.112 426.951 369.298 426.35 369.669 425.835C370.044 425.32 370.554 424.92 371.197 424.636C371.841 424.348 372.571 424.205 373.385 424.205C374.211 424.205 374.934 424.348 375.555 424.636C376.18 424.92 376.671 425.316 377.027 425.824C377.383 426.328 377.567 426.907 377.578 427.562H375.55ZM389.577 428.29H387.452C387.391 427.941 387.279 427.633 387.116 427.364C386.954 427.091 386.751 426.86 386.509 426.67C386.266 426.481 385.99 426.339 385.679 426.244C385.372 426.146 385.041 426.097 384.685 426.097C384.052 426.097 383.491 426.256 383.003 426.574C382.514 426.888 382.132 427.35 381.855 427.96C381.579 428.566 381.44 429.307 381.44 430.182C381.44 431.072 381.579 431.822 381.855 432.432C382.135 433.038 382.518 433.496 383.003 433.807C383.491 434.114 384.05 434.267 384.679 434.267C385.027 434.267 385.353 434.222 385.656 434.131C385.963 434.036 386.238 433.898 386.48 433.716C386.726 433.534 386.933 433.311 387.099 433.045C387.27 432.78 387.387 432.477 387.452 432.136L389.577 432.148C389.497 432.701 389.325 433.22 389.06 433.705C388.798 434.189 388.455 434.617 388.031 434.989C387.607 435.356 387.111 435.644 386.543 435.852C385.974 436.057 385.344 436.159 384.651 436.159C383.628 436.159 382.715 435.922 381.912 435.449C381.109 434.975 380.476 434.292 380.014 433.398C379.552 432.504 379.321 431.432 379.321 430.182C379.321 428.928 379.554 427.856 380.02 426.966C380.486 426.072 381.12 425.388 381.923 424.915C382.726 424.441 383.635 424.205 384.651 424.205C385.298 424.205 385.901 424.295 386.457 424.477C387.014 424.659 387.51 424.926 387.946 425.278C388.382 425.627 388.74 426.055 389.02 426.562C389.304 427.066 389.49 427.642 389.577 428.29ZM391.507 436V424.364H395.871C396.765 424.364 397.515 424.519 398.121 424.83C398.731 425.14 399.191 425.576 399.501 426.136C399.816 426.693 399.973 427.343 399.973 428.085C399.973 428.831 399.814 429.479 399.496 430.028C399.181 430.574 398.717 430.996 398.104 431.295C397.49 431.591 396.736 431.739 395.842 431.739H392.734V429.989H395.558C396.081 429.989 396.509 429.917 396.842 429.773C397.176 429.625 397.422 429.411 397.581 429.131C397.744 428.847 397.825 428.498 397.825 428.085C397.825 427.672 397.744 427.32 397.581 427.028C397.418 426.733 397.17 426.509 396.837 426.358C396.503 426.203 396.073 426.125 395.547 426.125H393.615V436H391.507ZM397.518 430.727L400.399 436H398.047L395.217 430.727H397.518ZM401.913 436V424.364H409.482V426.131H404.021V429.29H409.089V431.057H404.021V434.233H409.527V436H401.913ZM411.632 436V424.364H419.2V426.131H413.74V429.29H418.808V431.057H413.74V434.233H419.246V436H411.632ZM430.913 424.364V436H429.038L423.555 428.074H423.459V436H421.351V424.364H423.237L428.714 432.295H428.817V424.364H430.913ZM437.065 436V434.477L441.105 430.517C441.491 430.127 441.813 429.78 442.071 429.477C442.329 429.174 442.522 428.881 442.651 428.597C442.779 428.312 442.844 428.009 442.844 427.688C442.844 427.32 442.76 427.006 442.594 426.744C442.427 426.479 442.198 426.275 441.906 426.131C441.615 425.987 441.283 425.915 440.912 425.915C440.529 425.915 440.194 425.994 439.906 426.153C439.618 426.309 439.395 426.53 439.236 426.818C439.08 427.106 439.003 427.449 439.003 427.847H436.997C436.997 427.108 437.166 426.466 437.503 425.92C437.84 425.375 438.304 424.953 438.895 424.653C439.49 424.354 440.171 424.205 440.94 424.205C441.721 424.205 442.406 424.35 442.997 424.642C443.588 424.934 444.046 425.333 444.372 425.841C444.702 426.348 444.866 426.928 444.866 427.58C444.866 428.015 444.783 428.443 444.616 428.864C444.45 429.284 444.156 429.75 443.736 430.261C443.319 430.773 442.734 431.392 441.98 432.119L439.974 434.159V434.239H445.043V436H437.065Z" fill="#161B47"/>
</svg>
